<?xml version="1.0" encoding="utf-8"?>
<!-- Generator: Adobe Illustrator 16.0.0, SVG Export Plug-In . SVG Version: 6.00 Build 0)  -->
<!DOCTYPE svg PUBLIC "-//W3C//DTD SVG 1.1//EN" "http://www.w3.org/Graphics/SVG/1.1/DTD/svg11.dtd">
<svg version="1.1" id="Layer_1" xmlns="http://www.w3.org/2000/svg" xmlns:xlink="http://www.w3.org/1999/xlink" x="0px" y="0px"
	 width="64px" height="64px" viewBox="0 0 64 64" style="enable-background:new 0 0 64 64;" xml:space="preserve">
<style type="text/css">
<![CDATA[
	.st0{fill:#119E49;}
	.st1{fill:#E71A48;}
	.st2{fill-rule:evenodd;clip-rule:evenodd;fill:#7F7F7F;}
	.st3{fill:url(#SVGID_1_);}
	.st4{fill:url(#SVGID_2_);}
	.st5{fill:url(#SVGID_3_);}
	.st6{fill:url(#SVGID_4_);}
	.st7{fill:url(#SVGID_5_);}
	.st8{fill:url(#SVGID_6_);}
	.st9{fill:url(#SVGID_7_);}
	.st10{fill:url(#SVGID_8_);}
	.st11{fill:url(#SVGID_9_);}
	.st12{fill-rule:evenodd;clip-rule:evenodd;}
	.st13{fill-rule:evenodd;clip-rule:evenodd;fill:none;stroke:#000000;stroke-width:3;stroke-miterlimit:10;}
	.st14{fill:#FFFFFF;}
	.st15{fill:none;}
	.st16{opacity:0.5;fill:#ABABAB;stroke:#787677;stroke-width:3;stroke-miterlimit:10;}
	.st17{fill:none;stroke:#000000;stroke-width:2;stroke-miterlimit:10;}
	.st18{fill-rule:evenodd;clip-rule:evenodd;fill:#FFFFFF;}
	.st19{display:none;fill-rule:evenodd;clip-rule:evenodd;fill:none;stroke:#000000;stroke-width:3;stroke-miterlimit:10;}
	.st20{fill-rule:evenodd;clip-rule:evenodd;fill:none;stroke:#000000;stroke-width:2;stroke-miterlimit:10;}
	.st21{fill-rule:evenodd;clip-rule:evenodd;fill:none;stroke:#000000;stroke-miterlimit:10;}
	.st22{fill:#D3D3D3;}
	.st23{fill-rule:evenodd;clip-rule:evenodd;fill:#FFFFFF;stroke:#000000;stroke-width:2;stroke-miterlimit:10;}
	.st24{fill:url(#SVGID_10_);}
	.st25{fill:url(#SVGID_11_);}
	.st26{fill:url(#SVGID_12_);}
	.st27{fill:#0E0609;}
	.st28{fill-rule:evenodd;clip-rule:evenodd;fill:#D3D3D3;}
]]>
</style>
<path class="st12" d="M54.163,2.563c0.473,0.66,0.351,1.266-0.173,1.834c-1.333,1.447-2.613,2.945-4.005,4.334
	C36.947,21.74,23.892,34.729,10.839,47.723c-0.212,0.21-0.414,0.445-0.663,0.605c-0.858,0.55-1.819,0.77-2.634,0.071
	c-0.858-0.736-0.578-1.706-0.119-2.573c0.174-0.329,0.475-0.602,0.748-0.871C21.926,31.391,35.676,17.822,49.46,4.287
	c0.732-0.719,1.749-1.155,2.633-1.724C52.783,2.563,53.473,2.563,54.163,2.563z"/>
<path class="st12" d="M61.652,12.648c-1.128,1.413-2.149,2.933-3.4,4.223C45.703,29.821,33.118,42.733,20.536,55.65
	c-0.285,0.292-0.627,0.704-0.965,0.727c-0.723,0.051-1.667,0.129-2.127-0.272c-0.38-0.333-0.329-1.361-0.213-2.035
	c0.082-0.473,0.55-0.914,0.921-1.292c13.335-13.573,26.678-27.138,40.023-40.699c0.436-0.443,0.946-0.813,1.368-1.271
	c0.67-0.728,1.349-0.842,2.11-0.174C61.652,11.306,61.652,11.977,61.652,12.648z"/>
<path class="st12" d="M1.267,61.133c0.81-2.419,1.587-4.85,2.442-7.253c0.527-1.482,0.654-1.502,2.101-0.761
	c2.498,1.279,4.36,3.133,5.318,5.836c0.36,1.016,0.281,1.645-0.906,1.975C7.932,61.565,5.672,62.304,3.4,63
	c-0.711,0-1.422,0-2.133,0C1.267,62.378,1.267,61.755,1.267,61.133z"/>
<path class="st12" d="M13.656,53.703c-1.874-0.013-3.085-1.307-2.672-3.12c0.229-1.004,0.697-2.114,1.408-2.824
	C26.485,33.666,40.625,19.62,54.776,5.586c0.821-0.813,1.788-1.501,2.76-2.134c1.03-0.672,2.019-0.502,2.929,0.383
	c0.904,0.879,1.17,1.85,0.459,2.893c-0.823,1.208-1.669,2.431-2.685,3.474c-7.328,7.527-14.693,15.018-22.061,22.506
	c-6.398,6.503-12.82,12.981-19.216,19.484C16.039,53.131,14.999,53.725,13.656,53.703z"/>
</svg>
