<?xml version="1.0" encoding="utf-8"?>
<!-- Generator: Adobe Illustrator 16.0.0, SVG Export Plug-In . SVG Version: 6.00 Build 0)  -->
<!DOCTYPE svg PUBLIC "-//W3C//DTD SVG 1.1//EN" "http://www.w3.org/Graphics/SVG/1.1/DTD/svg11.dtd">
<svg version="1.1" id="Layer_1" xmlns="http://www.w3.org/2000/svg" xmlns:xlink="http://www.w3.org/1999/xlink" x="0px" y="0px"
	 width="64px" height="64px" viewBox="0 0 64 64" style="enable-background:new 0 0 64 64;" xml:space="preserve">
<style type="text/css">
<![CDATA[
	.st0{fill:#119E49;}
	.st1{fill:#E71A48;}
	.st2{fill-rule:evenodd;clip-rule:evenodd;fill:#7F7F7F;}
	.st3{fill:url(#SVGID_1_);}
	.st4{fill:url(#SVGID_2_);}
	.st5{fill:url(#SVGID_3_);}
	.st6{fill:url(#SVGID_4_);}
	.st7{fill:url(#SVGID_5_);}
	.st8{fill:url(#SVGID_6_);}
	.st9{fill:url(#SVGID_7_);}
	.st10{fill:url(#SVGID_8_);}
	.st11{fill:url(#SVGID_9_);}
	.st12{fill-rule:evenodd;clip-rule:evenodd;}
	.st13{fill-rule:evenodd;clip-rule:evenodd;fill:none;stroke:#000000;stroke-width:3;stroke-miterlimit:10;}
	.st14{fill:#FFFFFF;}
	.st15{fill:none;}
	.st16{opacity:0.5;fill:#ABABAB;stroke:#787677;stroke-width:3;stroke-miterlimit:10;}
	.st17{fill:none;stroke:#000000;stroke-width:2;stroke-miterlimit:10;}
	.st18{fill-rule:evenodd;clip-rule:evenodd;fill:#FFFFFF;}
	.st19{display:none;fill-rule:evenodd;clip-rule:evenodd;fill:none;stroke:#000000;stroke-width:3;stroke-miterlimit:10;}
	.st20{fill-rule:evenodd;clip-rule:evenodd;fill:none;stroke:#000000;stroke-width:2;stroke-miterlimit:10;}
	.st21{fill-rule:evenodd;clip-rule:evenodd;fill:none;stroke:#000000;stroke-miterlimit:10;}
	.st22{fill:#D3D3D3;}
	.st23{fill-rule:evenodd;clip-rule:evenodd;fill:#FFFFFF;stroke:#000000;stroke-width:2;stroke-miterlimit:10;}
	.st24{fill:url(#SVGID_10_);}
	.st25{fill:url(#SVGID_11_);}
	.st26{fill:url(#SVGID_12_);}
	.st27{fill:#0E0609;}
	.st28{fill-rule:evenodd;clip-rule:evenodd;fill:#D3D3D3;}
]]>
</style>
<g>
	<rect x="4.667" y="46" width="3.333" height="14.333"/>
	<rect x="54.667" y="46" width="3.333" height="14.333"/>
	<rect x="4.667" y="56.333" width="53" height="4"/>
	<rect x="31.077" y="28.667" width="1.846" height="18"/>
	<polygon points="21.999,37.667 32.215,49.667 40.834,37.333 31.896,43.833 	"/>
</g>
<g>
	<path class="st0" d="M9.431,18.323l-2.238,6.782H4.315L11.64,3.544h3.361l7.354,21.562h-2.973l-2.305-6.782H9.431z M16.503,16.147
		L14.39,9.941c-0.479-1.406-0.797-2.687-1.117-3.935h-0.066c-0.32,1.28-0.668,2.591-1.088,3.903l-2.109,6.237H16.503z"/>
	<g>
		<path d="M24.271,17.564c0-1.1-0.022-2.002-0.088-2.882h1.716l0.11,1.76h0.044c0.528-1.012,1.76-2.002,3.521-2.002
			c1.474,0,3.763,0.88,3.763,4.532v6.359H31.4v-6.139c0-1.717-0.639-3.146-2.465-3.146c-1.275,0-2.266,0.902-2.596,1.98
			c-0.088,0.241-0.132,0.571-0.132,0.901v6.403h-1.937V17.564z"/>
		<path d="M36.481,17.564c0-1.1-0.022-2.002-0.088-2.882h1.716l0.11,1.76h0.044c0.528-1.012,1.76-2.002,3.521-2.002
			c1.474,0,3.763,0.88,3.763,4.532v6.359H43.61v-6.139c0-1.717-0.638-3.146-2.465-3.146c-1.275,0-2.266,0.902-2.596,1.98
			c-0.088,0.241-0.132,0.571-0.132,0.901v6.403h-1.937V17.564z"/>
		<path d="M58.328,19.919c0,3.938-2.728,5.655-5.303,5.655c-2.882,0-5.104-2.112-5.104-5.479c0-3.564,2.333-5.655,5.281-5.655
			C56.261,14.44,58.328,16.663,58.328,19.919z M49.879,20.029c0,2.332,1.343,4.093,3.235,4.093c1.848,0,3.234-1.738,3.234-4.137
			c0-1.805-0.902-4.093-3.19-4.093C50.869,15.893,49.879,18.005,49.879,20.029z"/>
	</g>
</g>
</svg>
