<?xml version="1.0" encoding="utf-8"?>
<!-- Generator: Adobe Illustrator 16.0.0, SVG Export Plug-In . SVG Version: 6.00 Build 0)  -->
<!DOCTYPE svg PUBLIC "-//W3C//DTD SVG 1.1//EN" "http://www.w3.org/Graphics/SVG/1.1/DTD/svg11.dtd">
<svg version="1.1" id="Layer_1" xmlns="http://www.w3.org/2000/svg" xmlns:xlink="http://www.w3.org/1999/xlink" x="0px" y="0px"
	 width="40px" height="40px" viewBox="0 0 40 40" style="enable-background:new 0 0 40 40;" xml:space="preserve">
<style type="text/css">
<![CDATA[
	.st0{fill:#119E49;}
	.st1{fill:#E71A48;}
	.st2{fill-rule:evenodd;clip-rule:evenodd;fill:#7F7F7F;}
	.st3{fill:url(#SVGID_1_);}
	.st4{fill:url(#SVGID_2_);}
	.st5{fill:url(#SVGID_3_);}
	.st6{fill:url(#SVGID_4_);}
	.st7{fill:url(#SVGID_5_);}
	.st8{fill:url(#SVGID_6_);}
	.st9{fill:url(#SVGID_7_);}
	.st10{fill:url(#SVGID_8_);}
	.st11{fill:url(#SVGID_9_);}
	.st12{fill-rule:evenodd;clip-rule:evenodd;}
	.st13{fill-rule:evenodd;clip-rule:evenodd;fill:none;stroke:#000000;stroke-width:3;stroke-miterlimit:10;}
	.st14{fill:#FFFFFF;}
	.st15{fill:none;}
	.st16{opacity:0.5;fill:#ABABAB;stroke:#787677;stroke-width:3;stroke-miterlimit:10;}
	.st17{fill:none;stroke:#000000;stroke-width:2;stroke-miterlimit:10;}
	.st18{fill-rule:evenodd;clip-rule:evenodd;fill:#FFFFFF;}
	.st19{display:none;fill-rule:evenodd;clip-rule:evenodd;fill:none;stroke:#000000;stroke-width:3;stroke-miterlimit:10;}
	.st20{fill-rule:evenodd;clip-rule:evenodd;fill:none;stroke:#000000;stroke-width:2;stroke-miterlimit:10;}
	.st21{fill-rule:evenodd;clip-rule:evenodd;fill:none;stroke:#000000;stroke-miterlimit:10;}
	.st22{fill:#D3D3D3;}
	.st23{fill-rule:evenodd;clip-rule:evenodd;fill:#FFFFFF;stroke:#000000;stroke-width:2;stroke-miterlimit:10;}
	.st24{fill:url(#SVGID_10_);}
	.st25{fill:url(#SVGID_11_);}
	.st26{fill:url(#SVGID_12_);}
	.st27{fill:#0E0609;}
	.st28{fill-rule:evenodd;clip-rule:evenodd;fill:#D3D3D3;}
]]>
</style>
<linearGradient id="SVGID_1_" gradientUnits="userSpaceOnUse" x1="-510" y1="564" x2="-470" y2="564" gradientTransform="matrix(4.489659e-11 -1 1 4.489659e-11 -544 -470)">
	<stop  offset="0" style="stop-color:#FFFFFF"/>
	<stop  offset="1" style="stop-color:#6D6E71"/>
	<stop  offset="1" style="stop-color:#000000"/>
</linearGradient>
<rect class="st3" width="40" height="40"/>
<g>
	<line class="st27" x1="6.079" y1="33.921" x2="33.921" y2="6.079"/>
	<path d="M6.079,33.921c0,0-0.037-0.255-0.072-0.697c-0.023-0.432-0.104-1.11-0.105-1.873c-0.021-0.782-0.048-1.734-0.011-2.757
		c0.025-0.505,0.053-1.042,0.081-1.608c-0.002-0.3,0.175-0.427,0.402-0.513c0.221-0.092,0.349-0.283,0.52-0.438
		c2.61-2.61,6.091-6.09,9.571-9.571c3.479-3.48,6.96-6.96,9.57-9.57c0.152-0.174,0.349-0.297,0.447-0.511
		c0.053-0.104,0.09-0.221,0.18-0.283c0.087-0.066,0.225-0.079,0.371-0.082c0.573-0.021,1.116-0.042,1.627-0.062
		c1.003-0.058,1.953-0.032,2.728-0.02c0.757-0.003,1.424,0.065,1.849,0.083c0.446,0.038,0.685,0.059,0.685,0.059
		s0.021,0.238,0.059,0.684c0.018,0.425,0.086,1.092,0.082,1.85c0.013,0.773,0.039,1.725-0.02,2.727
		c-0.019,0.511-0.039,1.055-0.061,1.628c-0.003,0.146-0.017,0.283-0.082,0.37c-0.062,0.091-0.179,0.128-0.283,0.18
		c-0.213,0.099-0.336,0.295-0.51,0.447c-2.61,2.61-6.091,6.09-9.571,9.571c-3.479,3.48-6.96,6.96-9.57,9.57
		c-0.155,0.171-0.347,0.299-0.438,0.52c-0.085,0.227-0.212,0.405-0.513,0.402c-0.566,0.029-1.104,0.056-1.607,0.081
		c-1.023,0.038-1.975,0.01-2.757-0.011c-0.763-0.001-1.441-0.082-1.873-0.105C6.334,33.958,6.079,33.921,6.079,33.921z"/>
</g>
</svg>
