<?xml version="1.0" encoding="utf-8"?>
<!-- Generator: Adobe Illustrator 16.0.0, SVG Export Plug-In . SVG Version: 6.00 Build 0)  -->
<!DOCTYPE svg PUBLIC "-//W3C//DTD SVG 1.1//EN" "http://www.w3.org/Graphics/SVG/1.1/DTD/svg11.dtd">
<svg version="1.1" id="Layer_1" xmlns="http://www.w3.org/2000/svg" xmlns:xlink="http://www.w3.org/1999/xlink" x="0px" y="0px"
	 width="40px" height="40px" viewBox="0 0 40 40" style="enable-background:new 0 0 40 40;" xml:space="preserve">
<style type="text/css">
<![CDATA[
	.st0{fill:#119E49;}
	.st1{fill:#E71A48;}
	.st2{fill-rule:evenodd;clip-rule:evenodd;fill:#7F7F7F;}
	.st3{fill:url(#SVGID_1_);}
	.st4{fill:url(#SVGID_2_);}
	.st5{fill:url(#SVGID_3_);}
	.st6{fill:url(#SVGID_4_);}
	.st7{fill:url(#SVGID_5_);}
	.st8{fill:url(#SVGID_6_);}
	.st9{fill:url(#SVGID_7_);}
	.st10{fill:url(#SVGID_8_);}
	.st11{fill:url(#SVGID_9_);}
	.st12{fill-rule:evenodd;clip-rule:evenodd;}
	.st13{fill-rule:evenodd;clip-rule:evenodd;fill:none;stroke:#000000;stroke-width:3;stroke-miterlimit:10;}
	.st14{fill:#FFFFFF;}
	.st15{fill:none;}
	.st16{opacity:0.5;fill:#ABABAB;stroke:#787677;stroke-width:3;stroke-miterlimit:10;}
	.st17{fill:none;stroke:#000000;stroke-width:2;stroke-miterlimit:10;}
	.st18{fill-rule:evenodd;clip-rule:evenodd;fill:#FFFFFF;}
	.st19{display:none;fill-rule:evenodd;clip-rule:evenodd;fill:none;stroke:#000000;stroke-width:3;stroke-miterlimit:10;}
	.st20{fill-rule:evenodd;clip-rule:evenodd;fill:none;stroke:#000000;stroke-width:2;stroke-miterlimit:10;}
	.st21{fill-rule:evenodd;clip-rule:evenodd;fill:none;stroke:#000000;stroke-miterlimit:10;}
	.st22{fill:#D3D3D3;}
	.st23{fill-rule:evenodd;clip-rule:evenodd;fill:#FFFFFF;stroke:#000000;stroke-width:2;stroke-miterlimit:10;}
	.st24{fill:url(#SVGID_10_);}
	.st25{fill:url(#SVGID_11_);}
	.st26{fill:url(#SVGID_12_);}
	.st27{fill:#0E0609;}
	.st28{fill-rule:evenodd;clip-rule:evenodd;fill:#D3D3D3;}
]]>
</style>
<linearGradient id="SVGID_1_" gradientUnits="userSpaceOnUse" x1="-570" y1="624" x2="-530" y2="624" gradientTransform="matrix(4.489659e-11 -1 1 4.489659e-11 -604 -530)">
	<stop  offset="0" style="stop-color:#FFFFFF"/>
	<stop  offset="1" style="stop-color:#6D6E71"/>
	<stop  offset="1" style="stop-color:#000000"/>
</linearGradient>
<rect class="st3" width="40" height="40"/>
<g>
	<line class="st27" x1="6.079" y1="33.921" x2="33.921" y2="6.079"/>
	<path d="M6.079,33.921c0,0-0.052-0.269-0.11-0.736c-0.047-0.455-0.165-1.171-0.204-1.972c-0.062-0.822-0.138-1.823-0.149-2.895
		c0.002-0.529,0.003-1.091,0.005-1.685c-0.018-0.315,0.162-0.44,0.396-0.518c0.227-0.085,0.352-0.28,0.523-0.434
		c2.61-2.61,6.091-6.09,9.571-9.571c3.479-3.48,6.96-6.96,9.57-9.57c0.151-0.175,0.352-0.294,0.444-0.514
		c0.05-0.107,0.083-0.228,0.175-0.288c0.088-0.065,0.231-0.071,0.385-0.067c0.601,0.006,1.171,0.012,1.706,0.017
		c1.049-0.011,2.049,0.064,2.862,0.116c0.795,0.034,1.499,0.14,1.945,0.179c0.471,0.062,0.722,0.096,0.722,0.096
		S33.954,6.33,34.017,6.8c0.039,0.447,0.145,1.151,0.179,1.946c0.052,0.812,0.127,1.812,0.116,2.862
		c0.005,0.536,0.011,1.105,0.017,1.706c0.005,0.153-0.002,0.297-0.066,0.385c-0.061,0.092-0.182,0.125-0.288,0.175
		c-0.22,0.093-0.339,0.293-0.514,0.444c-2.61,2.61-6.091,6.09-9.571,9.571c-3.479,3.48-6.96,6.96-9.57,9.57
		c-0.154,0.172-0.349,0.297-0.434,0.524c-0.078,0.234-0.203,0.415-0.519,0.396c-0.593,0.002-1.156,0.003-1.685,0.005
		c-1.072-0.012-2.073-0.088-2.896-0.149c-0.8-0.039-1.517-0.158-1.971-0.205C6.349,33.973,6.079,33.921,6.079,33.921z"/>
</g>
</svg>
