<?xml version="1.0" encoding="utf-8"?>
<!-- Generator: Adobe Illustrator 16.0.0, SVG Export Plug-In . SVG Version: 6.00 Build 0)  -->
<!DOCTYPE svg PUBLIC "-//W3C//DTD SVG 1.1//EN" "http://www.w3.org/Graphics/SVG/1.1/DTD/svg11.dtd">
<svg version="1.1" id="Layer_1" xmlns="http://www.w3.org/2000/svg" xmlns:xlink="http://www.w3.org/1999/xlink" x="0px" y="0px"
	 width="40px" height="40px" viewBox="0 0 40 40" style="enable-background:new 0 0 40 40;" xml:space="preserve">
<style type="text/css">
<![CDATA[
	.st0{fill:#119E49;}
	.st1{fill:#E71A48;}
	.st2{fill-rule:evenodd;clip-rule:evenodd;fill:#7F7F7F;}
	.st3{fill:url(#SVGID_1_);}
	.st4{fill:url(#SVGID_2_);}
	.st5{fill:url(#SVGID_3_);}
	.st6{fill:url(#SVGID_4_);}
	.st7{fill:url(#SVGID_5_);}
	.st8{fill:url(#SVGID_6_);}
	.st9{fill:url(#SVGID_7_);}
	.st10{fill:url(#SVGID_8_);}
	.st11{fill:url(#SVGID_9_);}
	.st12{fill-rule:evenodd;clip-rule:evenodd;}
	.st13{fill-rule:evenodd;clip-rule:evenodd;fill:none;stroke:#000000;stroke-width:3;stroke-miterlimit:10;}
	.st14{fill:#FFFFFF;}
	.st15{fill:none;}
	.st16{opacity:0.5;fill:#ABABAB;stroke:#787677;stroke-width:3;stroke-miterlimit:10;}
	.st17{fill:none;stroke:#000000;stroke-width:2;stroke-miterlimit:10;}
	.st18{fill-rule:evenodd;clip-rule:evenodd;fill:#FFFFFF;}
	.st19{display:none;fill-rule:evenodd;clip-rule:evenodd;fill:none;stroke:#000000;stroke-width:3;stroke-miterlimit:10;}
	.st20{fill-rule:evenodd;clip-rule:evenodd;fill:none;stroke:#000000;stroke-width:2;stroke-miterlimit:10;}
	.st21{fill-rule:evenodd;clip-rule:evenodd;fill:none;stroke:#000000;stroke-miterlimit:10;}
	.st22{fill:#D3D3D3;}
	.st23{fill-rule:evenodd;clip-rule:evenodd;fill:#FFFFFF;stroke:#000000;stroke-width:2;stroke-miterlimit:10;}
	.st24{fill:url(#SVGID_10_);}
	.st25{fill:url(#SVGID_11_);}
	.st26{fill:url(#SVGID_12_);}
	.st27{fill:#0E0609;}
	.st28{fill-rule:evenodd;clip-rule:evenodd;fill:#D3D3D3;}
]]>
</style>
<linearGradient id="SVGID_1_" gradientUnits="userSpaceOnUse" x1="-390" y1="444" x2="-350" y2="444" gradientTransform="matrix(4.489659e-11 -1 1 4.489659e-11 -424 -350)">
	<stop  offset="0" style="stop-color:#FFFFFF"/>
	<stop  offset="1" style="stop-color:#6D6E71"/>
	<stop  offset="1" style="stop-color:#000000"/>
</linearGradient>
<rect class="st3" width="40" height="40"/>
<g>
	<line class="st27" x1="6.079" y1="33.921" x2="33.921" y2="6.079"/>
	<path d="M6.079,33.921c0,0-0.008-0.226,0.005-0.621c0.021-0.386,0.018-0.989,0.093-1.675c0.06-0.702,0.13-1.556,0.266-2.48
		c0.073-0.457,0.151-0.943,0.233-1.456c0.028-0.27,0.201-0.402,0.414-0.501c0.207-0.104,0.342-0.29,0.511-0.446
		c2.61-2.61,6.091-6.09,9.571-9.571c3.48-3.48,6.96-6.96,9.57-9.57c0.156-0.17,0.34-0.306,0.454-0.504
		c0.089-0.223,0.248-0.369,0.531-0.383c0.519-0.077,1.01-0.149,1.472-0.218c0.907-0.152,1.761-0.224,2.455-0.29
		c0.683-0.079,1.276-0.084,1.656-0.111c0.398-0.01,0.61-0.016,0.61-0.016s-0.005,0.212-0.016,0.61
		c-0.027,0.381-0.032,0.974-0.11,1.656c-0.066,0.695-0.138,1.548-0.291,2.456c-0.068,0.461-0.141,0.953-0.218,1.471
		c-0.015,0.283-0.16,0.442-0.383,0.532c-0.199,0.113-0.335,0.297-0.504,0.454c-2.61,2.61-6.091,6.09-9.571,9.571
		c-3.48,3.48-6.96,6.96-9.57,9.57c-0.157,0.169-0.342,0.304-0.446,0.512c-0.1,0.213-0.231,0.385-0.502,0.413
		c-0.513,0.083-0.998,0.16-1.455,0.234c-0.925,0.136-1.778,0.207-2.48,0.266c-0.686,0.075-1.288,0.07-1.675,0.092
		C6.305,33.929,6.079,33.921,6.079,33.921z"/>
</g>
</svg>
