<?xml version="1.0" encoding="utf-8"?>
<!-- Generator: Adobe Illustrator 16.0.0, SVG Export Plug-In . SVG Version: 6.00 Build 0)  -->
<!DOCTYPE svg PUBLIC "-//W3C//DTD SVG 1.1//EN" "http://www.w3.org/Graphics/SVG/1.1/DTD/svg11.dtd">
<svg version="1.1" id="Layer_1" xmlns="http://www.w3.org/2000/svg" xmlns:xlink="http://www.w3.org/1999/xlink" x="0px" y="0px"
	 width="40px" height="40px" viewBox="0 0 40 40" style="enable-background:new 0 0 40 40;" xml:space="preserve">
<style type="text/css">
<![CDATA[
	.st0{fill:#119E49;}
	.st1{fill:#E71A48;}
	.st2{fill-rule:evenodd;clip-rule:evenodd;fill:#7F7F7F;}
	.st3{fill:url(#SVGID_1_);}
	.st4{fill:url(#SVGID_2_);}
	.st5{fill:url(#SVGID_3_);}
	.st6{fill:url(#SVGID_4_);}
	.st7{fill:url(#SVGID_5_);}
	.st8{fill:url(#SVGID_6_);}
	.st9{fill:url(#SVGID_7_);}
	.st10{fill:url(#SVGID_8_);}
	.st11{fill:url(#SVGID_9_);}
	.st12{fill-rule:evenodd;clip-rule:evenodd;}
	.st13{fill-rule:evenodd;clip-rule:evenodd;fill:none;stroke:#000000;stroke-width:3;stroke-miterlimit:10;}
	.st14{fill:#FFFFFF;}
	.st15{fill:none;}
	.st16{opacity:0.5;fill:#ABABAB;stroke:#787677;stroke-width:3;stroke-miterlimit:10;}
	.st17{fill:none;stroke:#000000;stroke-width:2;stroke-miterlimit:10;}
	.st18{fill-rule:evenodd;clip-rule:evenodd;fill:#FFFFFF;}
	.st19{display:none;fill-rule:evenodd;clip-rule:evenodd;fill:none;stroke:#000000;stroke-width:3;stroke-miterlimit:10;}
	.st20{fill-rule:evenodd;clip-rule:evenodd;fill:none;stroke:#000000;stroke-width:2;stroke-miterlimit:10;}
	.st21{fill-rule:evenodd;clip-rule:evenodd;fill:none;stroke:#000000;stroke-miterlimit:10;}
	.st22{fill:#D3D3D3;}
	.st23{fill-rule:evenodd;clip-rule:evenodd;fill:#FFFFFF;stroke:#000000;stroke-width:2;stroke-miterlimit:10;}
	.st24{fill:url(#SVGID_10_);}
	.st25{fill:url(#SVGID_11_);}
	.st26{fill:url(#SVGID_12_);}
	.st27{fill:#0E0609;}
	.st28{fill-rule:evenodd;clip-rule:evenodd;fill:#D3D3D3;}
]]>
</style>
<linearGradient id="SVGID_1_" gradientUnits="userSpaceOnUse" x1="-210" y1="264" x2="-170" y2="264" gradientTransform="matrix(4.489659e-11 -1 1 4.489659e-11 -244 -170)">
	<stop  offset="0" style="stop-color:#FFFFFF"/>
	<stop  offset="1" style="stop-color:#6D6E71"/>
	<stop  offset="1" style="stop-color:#000000"/>
</linearGradient>
<rect class="st3" width="40" height="40"/>
<g>
	<line class="st27" x1="6.079" y1="33.921" x2="33.921" y2="6.079"/>
	<path d="M6.079,33.921c0,0,0.149-0.721,0.51-1.883c0.18-0.581,0.397-1.288,0.681-2.065c0.146-0.385,0.3-0.794,0.463-1.226
		c0.074-0.223,0.238-0.364,0.43-0.485c0.188-0.124,0.333-0.299,0.5-0.458c2.609-2.61,6.09-6.09,9.57-9.57
		c3.48-3.48,6.96-6.96,9.57-9.571c0.159-0.167,0.334-0.312,0.463-0.495c0.115-0.197,0.271-0.346,0.504-0.411
		c0.436-0.159,0.849-0.311,1.236-0.453c0.767-0.294,1.473-0.512,2.05-0.696c1.157-0.366,1.865-0.528,1.865-0.528
		s-0.161,0.708-0.527,1.865c-0.185,0.577-0.402,1.284-0.696,2.05c-0.143,0.388-0.294,0.801-0.453,1.236
		c-0.065,0.232-0.214,0.389-0.411,0.504c-0.183,0.129-0.327,0.304-0.495,0.463c-2.609,2.61-6.09,6.09-9.57,9.57
		c-3.48,3.48-6.96,6.96-9.57,9.571c-0.16,0.167-0.334,0.312-0.459,0.5c-0.121,0.191-0.262,0.355-0.484,0.43
		c-0.432,0.163-0.842,0.317-1.227,0.462c-0.776,0.284-1.483,0.501-2.065,0.682C6.8,33.771,6.079,33.921,6.079,33.921z"/>
</g>
</svg>
