<?xml version="1.0" encoding="utf-8"?>
<!-- Generator: Adobe Illustrator 16.0.0, SVG Export Plug-In . SVG Version: 6.00 Build 0)  -->
<!DOCTYPE svg PUBLIC "-//W3C//DTD SVG 1.1//EN" "http://www.w3.org/Graphics/SVG/1.1/DTD/svg11.dtd">
<svg version="1.1" id="Layer_1" xmlns="http://www.w3.org/2000/svg" xmlns:xlink="http://www.w3.org/1999/xlink" x="0px" y="0px"
	 width="64px" height="64px" viewBox="0 0 64 64" style="enable-background:new 0 0 64 64;" xml:space="preserve">
<style type="text/css">
<![CDATA[
	.st0{fill:#119E49;}
	.st1{fill:#E71A48;}
	.st2{fill-rule:evenodd;clip-rule:evenodd;fill:#7F7F7F;}
	.st3{fill:url(#SVGID_1_);}
	.st4{fill:url(#SVGID_2_);}
	.st5{fill:url(#SVGID_3_);}
	.st6{fill:url(#SVGID_4_);}
	.st7{fill:url(#SVGID_5_);}
	.st8{fill:url(#SVGID_6_);}
	.st9{fill:url(#SVGID_7_);}
	.st10{fill:url(#SVGID_8_);}
	.st11{fill:url(#SVGID_9_);}
	.st12{fill-rule:evenodd;clip-rule:evenodd;}
	.st13{fill-rule:evenodd;clip-rule:evenodd;fill:none;stroke:#000000;stroke-width:3;stroke-miterlimit:10;}
	.st14{fill:#FFFFFF;}
	.st15{fill:none;}
	.st16{opacity:0.5;fill:#ABABAB;stroke:#787677;stroke-width:3;stroke-miterlimit:10;}
	.st17{fill:none;stroke:#000000;stroke-width:2;stroke-miterlimit:10;}
	.st18{fill-rule:evenodd;clip-rule:evenodd;fill:#FFFFFF;}
	.st19{display:none;fill-rule:evenodd;clip-rule:evenodd;fill:none;stroke:#000000;stroke-width:3;stroke-miterlimit:10;}
	.st20{fill-rule:evenodd;clip-rule:evenodd;fill:none;stroke:#000000;stroke-width:2;stroke-miterlimit:10;}
	.st21{fill-rule:evenodd;clip-rule:evenodd;fill:none;stroke:#000000;stroke-miterlimit:10;}
	.st22{fill:#D3D3D3;}
	.st23{fill-rule:evenodd;clip-rule:evenodd;fill:#FFFFFF;stroke:#000000;stroke-width:2;stroke-miterlimit:10;}
	.st24{fill:url(#SVGID_10_);}
	.st25{fill:url(#SVGID_11_);}
	.st26{fill:url(#SVGID_12_);}
	.st27{fill:#0E0609;}
	.st28{fill-rule:evenodd;clip-rule:evenodd;fill:#D3D3D3;}
]]>
</style>
<path class="st12" d="M61.065,55.015c-4.702-4.703-9.405-9.405-14.109-14.107c-1.349-1.349-2.034-1.438-3.653-0.517
	c-1.686-1.686-3.363-3.364-5.058-5.061c-0.229,0.115-0.471,0.214-0.73,0.292c-0.024,0.014-0.045,0.031-0.069,0.045
	c-0.476,1.092-1.334,1.993-2.558,2.449c-0.024,0.171-0.056,0.341-0.097,0.509c0.019-0.012,0.038-0.026,0.056-0.038
	c1.737,1.731,3.438,3.425,5.144,5.124c-0.854,1.379-0.807,2.325,0.21,3.343c4.789,4.794,9.581,9.585,14.373,14.376
	c0.482,0.482,1.276,0.478,1.763-0.008c1.585-1.58,3.167-3.163,4.75-4.745C61.838,55.927,61.838,55.786,61.065,55.015z"/>
<circle class="st20" cx="22.552" cy="22.918" r="18.628"/>
<path class="st21" d="M29.811,29.668c-0.371,0.236-0.791,0.421-1.258,0.546c-0.441,0.299-0.936,0.517-1.491,0.596
	c-3.253,0.462-6.209,0.25-9.131-1.368c-2.282-1.264-4.046-2.781-5.003-5.259c-0.019-0.048-0.023-0.095-0.04-0.143
	c-0.214-0.382-0.385-0.788-0.497-1.214c-0.239-0.141-0.473-0.293-0.69-0.469c-0.01,0.187-0.028,0.372-0.028,0.562
	c0,6.009,4.871,10.88,10.879,10.88c3.494,0,6.596-1.653,8.586-4.213C30.702,29.672,30.256,29.686,29.811,29.668z"/>
</svg>
