<?xml version="1.0" encoding="utf-8"?>
<!-- Generator: Adobe Illustrator 16.0.0, SVG Export Plug-In . SVG Version: 6.00 Build 0)  -->
<!DOCTYPE svg PUBLIC "-//W3C//DTD SVG 1.1//EN" "http://www.w3.org/Graphics/SVG/1.1/DTD/svg11.dtd">
<svg version="1.1" id="Layer_1" xmlns="http://www.w3.org/2000/svg" xmlns:xlink="http://www.w3.org/1999/xlink" x="0px" y="0px"
	 width="40px" height="40px" viewBox="0 0 40 40" style="enable-background:new 0 0 40 40;" xml:space="preserve">
<style type="text/css">
<![CDATA[
	.st0{fill:#119E49;}
	.st1{fill:#E71A48;}
	.st2{fill-rule:evenodd;clip-rule:evenodd;fill:#7F7F7F;}
	.st3{fill:url(#SVGID_1_);}
	.st4{fill:url(#SVGID_2_);}
	.st5{fill:url(#SVGID_3_);}
	.st6{fill:url(#SVGID_4_);}
	.st7{fill:url(#SVGID_5_);}
	.st8{fill:url(#SVGID_6_);}
	.st9{fill:url(#SVGID_7_);}
	.st10{fill:url(#SVGID_8_);}
	.st11{fill:url(#SVGID_9_);}
	.st12{fill-rule:evenodd;clip-rule:evenodd;}
	.st13{fill-rule:evenodd;clip-rule:evenodd;fill:none;stroke:#000000;stroke-width:3;stroke-miterlimit:10;}
	.st14{fill:#FFFFFF;}
	.st15{fill:none;}
	.st16{opacity:0.5;fill:#ABABAB;stroke:#787677;stroke-width:3;stroke-miterlimit:10;}
	.st17{fill:none;stroke:#000000;stroke-width:2;stroke-miterlimit:10;}
	.st18{fill-rule:evenodd;clip-rule:evenodd;fill:#FFFFFF;}
	.st19{display:none;fill-rule:evenodd;clip-rule:evenodd;fill:none;stroke:#000000;stroke-width:3;stroke-miterlimit:10;}
	.st20{fill-rule:evenodd;clip-rule:evenodd;fill:none;stroke:#000000;stroke-width:2;stroke-miterlimit:10;}
	.st21{fill-rule:evenodd;clip-rule:evenodd;fill:none;stroke:#000000;stroke-miterlimit:10;}
	.st22{fill:#D3D3D3;}
	.st23{fill-rule:evenodd;clip-rule:evenodd;fill:#FFFFFF;stroke:#000000;stroke-width:2;stroke-miterlimit:10;}
	.st24{fill:url(#SVGID_10_);}
	.st25{fill:url(#SVGID_11_);}
	.st26{fill:url(#SVGID_12_);}
	.st27{fill:#0E0609;}
	.st28{fill-rule:evenodd;clip-rule:evenodd;fill:#D3D3D3;}
]]>
</style>
<linearGradient id="SVGID_1_" gradientUnits="userSpaceOnUse" x1="-630" y1="684" x2="-590" y2="684" gradientTransform="matrix(4.489659e-11 -1 1 4.489659e-11 -664 -590)">
	<stop  offset="0" style="stop-color:#FFFFFF"/>
	<stop  offset="1" style="stop-color:#6D6E71"/>
	<stop  offset="1" style="stop-color:#000000"/>
</linearGradient>
<rect class="st3" width="40" height="40"/>
<g>
	<line class="st27" x1="6.079" y1="33.921" x2="33.921" y2="6.079"/>
	<path d="M6.079,33.921c0,0-0.066-0.284-0.149-0.774c-0.069-0.477-0.226-1.232-0.303-2.07C5.526,30.214,5.4,29.164,5.34,28.042
		c-0.022-0.553-0.047-1.141-0.072-1.761c-0.032-0.33,0.15-0.453,0.391-0.524c0.234-0.079,0.355-0.276,0.528-0.43
		c2.61-2.61,6.091-6.09,9.571-9.571c3.479-3.48,6.96-6.96,9.57-9.571c0.15-0.176,0.354-0.292,0.441-0.517
		c0.047-0.109,0.076-0.234,0.169-0.293c0.089-0.063,0.239-0.063,0.399-0.052c0.629,0.034,1.225,0.065,1.785,0.095
		c1.096,0.036,2.145,0.161,2.997,0.251c0.833,0.072,1.573,0.214,2.042,0.275c0.495,0.087,0.759,0.133,0.759,0.133
		s0.046,0.264,0.133,0.758c0.062,0.469,0.204,1.209,0.275,2.043c0.091,0.852,0.216,1.901,0.251,2.997
		c0.03,0.56,0.062,1.156,0.096,1.785c0.012,0.16,0.011,0.31-0.053,0.399c-0.059,0.094-0.184,0.123-0.293,0.17
		c-0.225,0.087-0.341,0.291-0.517,0.441c-2.61,2.61-6.091,6.09-9.571,9.571c-3.479,3.48-6.96,6.96-9.57,9.571
		c-0.153,0.172-0.352,0.294-0.43,0.528c-0.071,0.241-0.193,0.424-0.523,0.391c-0.621-0.025-1.209-0.049-1.762-0.072
		c-1.121-0.061-2.171-0.186-3.033-0.287c-0.839-0.077-1.594-0.234-2.07-0.303C6.363,33.987,6.079,33.921,6.079,33.921z"/>
</g>
</svg>
