<?xml version="1.0" encoding="utf-8"?>
<!-- Generator: Adobe Illustrator 16.0.0, SVG Export Plug-In . SVG Version: 6.00 Build 0)  -->
<!DOCTYPE svg PUBLIC "-//W3C//DTD SVG 1.1//EN" "http://www.w3.org/Graphics/SVG/1.1/DTD/svg11.dtd">
<svg version="1.1" id="Layer_1" xmlns="http://www.w3.org/2000/svg" xmlns:xlink="http://www.w3.org/1999/xlink" x="0px" y="0px"
	 width="40px" height="40px" viewBox="0 0 40 40" style="enable-background:new 0 0 40 40;" xml:space="preserve">
<style type="text/css">
<![CDATA[
	.st0{fill:#119E49;}
	.st1{fill:#E71A48;}
	.st2{fill-rule:evenodd;clip-rule:evenodd;fill:#7F7F7F;}
	.st3{fill:url(#SVGID_1_);}
	.st4{fill:url(#SVGID_2_);}
	.st5{fill:url(#SVGID_3_);}
	.st6{fill:url(#SVGID_4_);}
	.st7{fill:url(#SVGID_5_);}
	.st8{fill:url(#SVGID_6_);}
	.st9{fill:url(#SVGID_7_);}
	.st10{fill:url(#SVGID_8_);}
	.st11{fill:url(#SVGID_9_);}
	.st12{fill-rule:evenodd;clip-rule:evenodd;}
	.st13{fill-rule:evenodd;clip-rule:evenodd;fill:none;stroke:#000000;stroke-width:3;stroke-miterlimit:10;}
	.st14{fill:#FFFFFF;}
	.st15{fill:none;}
	.st16{opacity:0.5;fill:#ABABAB;stroke:#787677;stroke-width:3;stroke-miterlimit:10;}
	.st17{fill:none;stroke:#000000;stroke-width:2;stroke-miterlimit:10;}
	.st18{fill-rule:evenodd;clip-rule:evenodd;fill:#FFFFFF;}
	.st19{display:none;fill-rule:evenodd;clip-rule:evenodd;fill:none;stroke:#000000;stroke-width:3;stroke-miterlimit:10;}
	.st20{fill-rule:evenodd;clip-rule:evenodd;fill:none;stroke:#000000;stroke-width:2;stroke-miterlimit:10;}
	.st21{fill-rule:evenodd;clip-rule:evenodd;fill:none;stroke:#000000;stroke-miterlimit:10;}
	.st22{fill:#D3D3D3;}
	.st23{fill-rule:evenodd;clip-rule:evenodd;fill:#FFFFFF;stroke:#000000;stroke-width:2;stroke-miterlimit:10;}
	.st24{fill:url(#SVGID_10_);}
	.st25{fill:url(#SVGID_11_);}
	.st26{fill:url(#SVGID_12_);}
	.st27{fill:#0E0609;}
	.st28{fill-rule:evenodd;clip-rule:evenodd;fill:#D3D3D3;}
]]>
</style>
<linearGradient id="SVGID_1_" gradientUnits="userSpaceOnUse" x1="-150" y1="204" x2="-110" y2="204" gradientTransform="matrix(4.489659e-11 -1 1 4.489659e-11 -184 -110)">
	<stop  offset="0" style="stop-color:#FFFFFF"/>
	<stop  offset="1" style="stop-color:#6D6E71"/>
	<stop  offset="1" style="stop-color:#000000"/>
</linearGradient>
<rect class="st3" width="40" height="40"/>
<g>
	<line class="st27" x1="6.079" y1="33.921" x2="33.921" y2="6.079"/>
	<path d="M6.079,33.921c0,0,0.206-0.664,0.646-1.746c0.22-0.542,0.485-1.201,0.828-1.918c0.167-0.364,0.344-0.75,0.531-1.158
		c0.089-0.208,0.251-0.351,0.435-0.479c0.182-0.131,0.33-0.302,0.496-0.463c2.609-2.61,6.09-6.09,9.57-9.57
		c3.48-3.48,6.96-6.96,9.57-9.571c0.16-0.167,0.332-0.314,0.467-0.492c0.123-0.189,0.278-0.338,0.494-0.42
		c0.408-0.187,0.795-0.365,1.158-0.531c0.719-0.342,1.377-0.608,1.914-0.832c1.078-0.445,1.731-0.662,1.731-0.662
		s-0.216,0.654-0.661,1.731c-0.224,0.538-0.49,1.195-0.832,1.914c-0.167,0.364-0.344,0.75-0.531,1.158
		c-0.082,0.216-0.23,0.371-0.42,0.494c-0.178,0.135-0.325,0.307-0.492,0.467c-2.609,2.61-6.09,6.09-9.57,9.57
		c-3.48,3.48-6.96,6.96-9.57,9.571c-0.16,0.166-0.332,0.314-0.463,0.495c-0.128,0.184-0.271,0.346-0.479,0.435
		c-0.408,0.187-0.795,0.365-1.158,0.531c-0.718,0.343-1.377,0.608-1.918,0.828C6.743,33.714,6.079,33.921,6.079,33.921z"/>
</g>
</svg>
