<?xml version="1.0" encoding="utf-8"?>
<!-- Generator: Adobe Illustrator 16.0.0, SVG Export Plug-In . SVG Version: 6.00 Build 0)  -->
<!DOCTYPE svg PUBLIC "-//W3C//DTD SVG 1.1//EN" "http://www.w3.org/Graphics/SVG/1.1/DTD/svg11.dtd">
<svg version="1.1" id="Layer_1" xmlns="http://www.w3.org/2000/svg" xmlns:xlink="http://www.w3.org/1999/xlink" x="0px" y="0px"
	 width="40px" height="40px" viewBox="0 0 40 40" style="enable-background:new 0 0 40 40;" xml:space="preserve">
<style type="text/css">
<![CDATA[
	.st0{fill:#119E49;}
	.st1{fill:#E71A48;}
	.st2{fill-rule:evenodd;clip-rule:evenodd;fill:#7F7F7F;}
	.st3{fill:url(#SVGID_1_);}
	.st4{fill:url(#SVGID_2_);}
	.st5{fill:url(#SVGID_3_);}
	.st6{fill:url(#SVGID_4_);}
	.st7{fill:url(#SVGID_5_);}
	.st8{fill:url(#SVGID_6_);}
	.st9{fill:url(#SVGID_7_);}
	.st10{fill:url(#SVGID_8_);}
	.st11{fill:url(#SVGID_9_);}
	.st12{fill-rule:evenodd;clip-rule:evenodd;}
	.st13{fill-rule:evenodd;clip-rule:evenodd;fill:none;stroke:#000000;stroke-width:3;stroke-miterlimit:10;}
	.st14{fill:#FFFFFF;}
	.st15{fill:none;}
	.st16{opacity:0.5;fill:#ABABAB;stroke:#787677;stroke-width:3;stroke-miterlimit:10;}
	.st17{fill:none;stroke:#000000;stroke-width:2;stroke-miterlimit:10;}
	.st18{fill-rule:evenodd;clip-rule:evenodd;fill:#FFFFFF;}
	.st19{display:none;fill-rule:evenodd;clip-rule:evenodd;fill:none;stroke:#000000;stroke-width:3;stroke-miterlimit:10;}
	.st20{fill-rule:evenodd;clip-rule:evenodd;fill:none;stroke:#000000;stroke-width:2;stroke-miterlimit:10;}
	.st21{fill-rule:evenodd;clip-rule:evenodd;fill:none;stroke:#000000;stroke-miterlimit:10;}
	.st22{fill:#D3D3D3;}
	.st23{fill-rule:evenodd;clip-rule:evenodd;fill:#FFFFFF;stroke:#000000;stroke-width:2;stroke-miterlimit:10;}
	.st24{fill:url(#SVGID_10_);}
	.st25{fill:url(#SVGID_11_);}
	.st26{fill:url(#SVGID_12_);}
	.st27{fill:#0E0609;}
	.st28{fill-rule:evenodd;clip-rule:evenodd;fill:#D3D3D3;}
]]>
</style>
<linearGradient id="SVGID_1_" gradientUnits="userSpaceOnUse" x1="-30" y1="84" x2="10" y2="84" gradientTransform="matrix(4.489659e-11 -1 1 4.489659e-11 -64 10)">
	<stop  offset="0" style="stop-color:#FFFFFF"/>
	<stop  offset="1" style="stop-color:#6D6E71"/>
	<stop  offset="1" style="stop-color:#000000"/>
</linearGradient>
<rect class="st3" width="40" height="40"/>
<g>
	<line class="st27" x1="6.079" y1="33.921" x2="33.921" y2="6.079"/>
	<path d="M6.079,33.921c0,0,0.323-0.547,0.922-1.471c0.3-0.461,0.664-1.021,1.101-1.646c0.216-0.314,0.445-0.649,0.688-1.001
		c0.245-0.349,0.627-0.593,0.934-0.939c2.609-2.61,6.09-6.09,9.57-9.57c3.48-3.48,6.96-6.96,9.57-9.571
		c0.35-0.303,0.587-0.691,0.949-0.924c0.353-0.242,0.687-0.472,1.001-0.688c0.624-0.436,1.185-0.8,1.644-1.103
		c0.922-0.601,1.464-0.929,1.464-0.929s-0.328,0.542-0.929,1.464c-0.303,0.459-0.667,1.019-1.103,1.644
		c-0.216,0.314-0.445,0.649-0.688,1.001c-0.233,0.362-0.621,0.599-0.925,0.949c-2.609,2.61-6.09,6.09-9.57,9.57
		c-3.48,3.48-6.96,6.96-9.57,9.571c-0.347,0.306-0.59,0.688-0.939,0.933c-0.353,0.242-0.688,0.472-1.001,0.688
		C8.572,32.335,8.012,32.699,7.55,33C6.626,33.598,6.079,33.921,6.079,33.921z"/>
</g>
</svg>
