<?xml version="1.0" encoding="utf-8"?>
<!-- Generator: Adobe Illustrator 16.0.0, SVG Export Plug-In . SVG Version: 6.00 Build 0)  -->
<!DOCTYPE svg PUBLIC "-//W3C//DTD SVG 1.1//EN" "http://www.w3.org/Graphics/SVG/1.1/DTD/svg11.dtd">
<svg version="1.1" id="Layer_1" xmlns="http://www.w3.org/2000/svg" xmlns:xlink="http://www.w3.org/1999/xlink" x="0px" y="0px"
	 width="64px" height="64px" viewBox="0 0 64 64" style="enable-background:new 0 0 64 64;" xml:space="preserve">
<style type="text/css">
<![CDATA[
	.st0{fill:#119E49;}
	.st1{fill:#E71A48;}
	.st2{fill-rule:evenodd;clip-rule:evenodd;fill:#7F7F7F;}
	.st3{fill:url(#SVGID_1_);}
	.st4{fill:url(#SVGID_2_);}
	.st5{fill:url(#SVGID_3_);}
	.st6{fill:url(#SVGID_4_);}
	.st7{fill:url(#SVGID_5_);}
	.st8{fill:url(#SVGID_6_);}
	.st9{fill:url(#SVGID_7_);}
	.st10{fill:url(#SVGID_8_);}
	.st11{fill:url(#SVGID_9_);}
	.st12{fill-rule:evenodd;clip-rule:evenodd;}
	.st13{fill-rule:evenodd;clip-rule:evenodd;fill:none;stroke:#000000;stroke-width:3;stroke-miterlimit:10;}
	.st14{fill:#FFFFFF;}
	.st15{fill:none;}
	.st16{opacity:0.5;fill:#ABABAB;stroke:#787677;stroke-width:3;stroke-miterlimit:10;}
	.st17{fill:none;stroke:#000000;stroke-width:2;stroke-miterlimit:10;}
	.st18{fill-rule:evenodd;clip-rule:evenodd;fill:#FFFFFF;}
	.st19{display:none;fill-rule:evenodd;clip-rule:evenodd;fill:none;stroke:#000000;stroke-width:3;stroke-miterlimit:10;}
	.st20{fill-rule:evenodd;clip-rule:evenodd;fill:none;stroke:#000000;stroke-width:2;stroke-miterlimit:10;}
	.st21{fill-rule:evenodd;clip-rule:evenodd;fill:none;stroke:#000000;stroke-miterlimit:10;}
	.st22{fill:#D3D3D3;}
	.st23{fill-rule:evenodd;clip-rule:evenodd;fill:#FFFFFF;stroke:#000000;stroke-width:2;stroke-miterlimit:10;}
	.st24{fill:url(#SVGID_10_);}
	.st25{fill:url(#SVGID_11_);}
	.st26{fill:url(#SVGID_12_);}
	.st27{fill:#0E0609;}
	.st28{fill-rule:evenodd;clip-rule:evenodd;fill:#D3D3D3;}
]]>
</style>
<g>
	<path d="M58.5,16.266c0,12.422,0,24.845,0,37.268c-0.856,2.453-2.523,4.101-4.966,4.967c-14.356,0-28.71,0-43.065,0
		C8.022,57.634,6.36,55.986,5.5,53.533c0-14.356,0-28.71,0-43.064C6.36,8.015,8.022,6.367,10.469,5.5c12.422,0,24.844,0,37.266,0
		C51.982,8.43,55.571,12.019,58.5,16.266z M31.892,56.499c5.792,0,11.583,0.008,17.376-0.005c2.631-0.005,3.134-0.505,3.142-3.16
		c0.014-6.067,0.014-12.137,0-18.203c-0.008-2.645-0.53-3.175-3.131-3.177c-11.516-0.012-23.031-0.012-34.545,0
		c-2.607,0.002-3.133,0.526-3.14,3.164c-0.016,6.069-0.016,12.137,0,18.205c0.007,2.66,0.508,3.166,3.128,3.171
		C20.445,56.507,26.168,56.499,31.892,56.499z M31.138,7.503c-4.209,0-8.418-0.018-12.624,0.008
		c-2.239,0.013-2.831,0.576-2.851,2.836c-0.041,4.277,0.004,8.555-0.016,12.833c-0.01,1.889,0.846,2.752,2.77,2.744
		c8.349-0.033,16.693-0.001,25.043-0.022c2.193-0.005,2.86-0.634,2.886-2.833c0.055-4.208,0.054-8.417,0.006-12.625
		c-0.027-2.316-0.689-2.924-3.004-2.935C39.279,7.489,35.209,7.503,31.138,7.503z"/>
	<path class="st18" d="M58.5,16.266C55.571,12.019,51.982,8.43,47.734,5.5c3.589,0,7.177,0,10.766,0
		C58.5,9.089,58.5,12.677,58.5,16.266z"/>
	<path class="st18" d="M10.469,5.5C8.022,6.367,6.36,8.015,5.5,10.469c0-1.656,0-3.312,0-4.969C7.156,5.5,8.814,5.5,10.469,5.5z"/>
	<path class="st18" d="M5.5,53.533c0.86,2.453,2.522,4.101,4.969,4.967c-1.654,0-3.312,0-4.969,0C5.5,56.845,5.5,55.188,5.5,53.533z
		"/>
	<path class="st18" d="M53.534,58.5c2.442-0.866,4.109-2.514,4.966-4.967c0,1.654,0,3.312,0,4.967
		C56.845,58.5,55.188,58.5,53.534,58.5z"/>
	<path class="st12" d="M41.967,23.661c-1.935,0-3.707,0-5.642,0c0-4.604,0-9.159,0-13.857c1.817,0,3.639,0,5.642,0
		C41.967,14.335,41.967,18.887,41.967,23.661z"/>
</g>
</svg>
