<?xml version="1.0" encoding="utf-8"?>
<!-- Generator: Adobe Illustrator 16.0.0, SVG Export Plug-In . SVG Version: 6.00 Build 0)  -->
<!DOCTYPE svg PUBLIC "-//W3C//DTD SVG 1.1//EN" "http://www.w3.org/Graphics/SVG/1.1/DTD/svg11.dtd">
<svg version="1.1" id="Layer_1" xmlns="http://www.w3.org/2000/svg" xmlns:xlink="http://www.w3.org/1999/xlink" x="0px" y="0px"
	 width="64px" height="64px" viewBox="0 0 64 64" style="enable-background:new 0 0 64 64;" xml:space="preserve">
<style type="text/css">
<![CDATA[
	.st0{fill:#119E49;}
	.st1{fill:#E71A48;}
	.st2{fill-rule:evenodd;clip-rule:evenodd;fill:#7F7F7F;}
	.st3{fill:url(#SVGID_1_);}
	.st4{fill:url(#SVGID_2_);}
	.st5{fill:url(#SVGID_3_);}
	.st6{fill:url(#SVGID_4_);}
	.st7{fill:url(#SVGID_5_);}
	.st8{fill:url(#SVGID_6_);}
	.st9{fill:url(#SVGID_7_);}
	.st10{fill:url(#SVGID_8_);}
	.st11{fill:url(#SVGID_9_);}
	.st12{fill-rule:evenodd;clip-rule:evenodd;}
	.st13{fill-rule:evenodd;clip-rule:evenodd;fill:none;stroke:#000000;stroke-width:3;stroke-miterlimit:10;}
	.st14{fill:#FFFFFF;}
	.st15{fill:none;}
	.st16{opacity:0.5;fill:#ABABAB;stroke:#787677;stroke-width:3;stroke-miterlimit:10;}
	.st17{fill:none;stroke:#000000;stroke-width:2;stroke-miterlimit:10;}
	.st18{fill-rule:evenodd;clip-rule:evenodd;fill:#FFFFFF;}
	.st19{display:none;fill-rule:evenodd;clip-rule:evenodd;fill:none;stroke:#000000;stroke-width:3;stroke-miterlimit:10;}
	.st20{fill-rule:evenodd;clip-rule:evenodd;fill:none;stroke:#000000;stroke-width:2;stroke-miterlimit:10;}
	.st21{fill-rule:evenodd;clip-rule:evenodd;fill:none;stroke:#000000;stroke-miterlimit:10;}
	.st22{fill:#D3D3D3;}
	.st23{fill-rule:evenodd;clip-rule:evenodd;fill:#FFFFFF;stroke:#000000;stroke-width:2;stroke-miterlimit:10;}
	.st24{fill:url(#SVGID_10_);}
	.st25{fill:url(#SVGID_11_);}
	.st26{fill:url(#SVGID_12_);}
	.st27{fill:#0E0609;}
	.st28{fill-rule:evenodd;clip-rule:evenodd;fill:#D3D3D3;}
]]>
</style>
<g>
	<path d="M45.371,53.179C41,46,36,41,31,35c-5,8-10,21-21,18c4-3,6-7,8.797-10.524c4.317-5.366,8.635-10.727,8.635-10.727
		L10.833,10.821H19.3l7.461,9.929c2.096,2.766,3.689,4.903,5.198,7.164h0.251c1.592-2.513,3.018-4.461,5.113-7.164l7.712-9.929
		h8.383L36.233,31.435l17.604,21.744H45.371z"/>
</g>
<path class="st15" d="M47.667,11.167c-0.099,0.338-0.081,0.934-0.128,1.27c1.058-0.698,2.088-1.552,2.794-2.603"/>
</svg>
