<?xml version="1.0" encoding="utf-8"?>
<!-- Generator: Adobe Illustrator 16.0.0, SVG Export Plug-In . SVG Version: 6.00 Build 0)  -->
<!DOCTYPE svg PUBLIC "-//W3C//DTD SVG 1.1//EN" "http://www.w3.org/Graphics/SVG/1.1/DTD/svg11.dtd">
<svg version="1.1" id="Layer_1" xmlns="http://www.w3.org/2000/svg" xmlns:xlink="http://www.w3.org/1999/xlink" x="0px" y="0px"
	 width="64px" height="64px" viewBox="0 0 64 64" style="enable-background:new 0 0 64 64;" xml:space="preserve">
<style type="text/css">
<![CDATA[
	.st0{fill:#119E49;}
	.st1{fill:#E71A48;}
	.st2{fill-rule:evenodd;clip-rule:evenodd;fill:#7F7F7F;}
	.st3{fill-rule:evenodd;clip-rule:evenodd;}
	.st4{fill-rule:evenodd;clip-rule:evenodd;fill:none;stroke:#000000;stroke-width:3;stroke-miterlimit:10;}
	.st5{fill:#FFFFFF;}
	.st6{fill:none;}
	.st7{opacity:0.5;fill:#ABABAB;stroke:#787677;stroke-width:3;stroke-miterlimit:10;}
	.st8{fill:none;stroke:#000000;stroke-width:2;stroke-miterlimit:10;}
	.st9{fill-rule:evenodd;clip-rule:evenodd;fill:#FFFFFF;}
	.st10{display:none;fill-rule:evenodd;clip-rule:evenodd;fill:none;stroke:#000000;stroke-width:3;stroke-miterlimit:10;}
	.st11{fill-rule:evenodd;clip-rule:evenodd;fill:none;stroke:#000000;stroke-width:2;stroke-miterlimit:10;}
	.st12{fill-rule:evenodd;clip-rule:evenodd;fill:none;stroke:#000000;stroke-miterlimit:10;}
	.st13{fill:#D3D3D3;}
	.st14{fill-rule:evenodd;clip-rule:evenodd;fill:#D3D3D3;}
]]>
</style>
<g>
	<path class="st3" d="M30.621,47.998c-3.754-3.794-7.307-7.384-11.078-11.193C19.385,36.645,50.044,6.96,49.887,6.8
		C49.772,6.683,18.84,36.092,18.723,35.976c-0.762-0.771-1.533-1.55-2.318-2.343c10.283-8.87,21.05-18.16,32.517-28.054
		c0.453,0.518,0.903,1.031,1.352,1.543c0.153,0.173-30.692,29.709-30.541,29.883C19.912,37.21,51.089,8.053,51.269,8.259
		c2.203,2.515,4.403,5.025,6.84,7.805C49.046,26.594,39.76,37.381,30.621,47.998z"/>
	<path class="st3" d="M28.765,49.424c-1.836,2.421-12.02,6.384-15.256,5.062c-1.475-0.602-3.436-2.254-3.536-3.557
		c-0.279-3.638-0.173-7.461,0.72-10.973c0.495-1.944,2.873-3.408,4.228-4.897C19.69,40.007,24.185,44.672,28.765,49.424z"/>
	<polyline points="10.365,58 2.359,58 9.884,50.476 14.578,54.002 	"/>
</g>
</svg>
