<?xml version="1.0" encoding="utf-8"?>
<!-- Generator: Adobe Illustrator 16.0.0, SVG Export Plug-In . SVG Version: 6.00 Build 0)  -->
<!DOCTYPE svg PUBLIC "-//W3C//DTD SVG 1.1//EN" "http://www.w3.org/Graphics/SVG/1.1/DTD/svg11.dtd">
<svg version="1.1" id="Layer_1" xmlns="http://www.w3.org/2000/svg" xmlns:xlink="http://www.w3.org/1999/xlink" x="0px" y="0px"
	 width="64px" height="64px" viewBox="0 0 64 64" style="enable-background:new 0 0 64 64;" xml:space="preserve">
<style type="text/css">
<![CDATA[
	.st0{fill:#119E49;}
	.st1{fill:#E71A48;}
	.st2{fill-rule:evenodd;clip-rule:evenodd;fill:#7F7F7F;}
	.st3{fill:url(#SVGID_1_);}
	.st4{fill:url(#SVGID_2_);}
	.st5{fill:url(#SVGID_3_);}
	.st6{fill:url(#SVGID_4_);}
	.st7{fill:url(#SVGID_5_);}
	.st8{fill:url(#SVGID_6_);}
	.st9{fill:url(#SVGID_7_);}
	.st10{fill:url(#SVGID_8_);}
	.st11{fill:url(#SVGID_9_);}
	.st12{fill-rule:evenodd;clip-rule:evenodd;}
	.st13{fill-rule:evenodd;clip-rule:evenodd;fill:none;stroke:#000000;stroke-width:3;stroke-miterlimit:10;}
	.st14{fill:#FFFFFF;}
	.st15{fill:none;}
	.st16{opacity:0.5;fill:#ABABAB;stroke:#787677;stroke-width:3;stroke-miterlimit:10;}
	.st17{fill:none;stroke:#000000;stroke-width:2;stroke-miterlimit:10;}
	.st18{fill-rule:evenodd;clip-rule:evenodd;fill:#FFFFFF;}
	.st19{display:none;fill-rule:evenodd;clip-rule:evenodd;fill:none;stroke:#000000;stroke-width:3;stroke-miterlimit:10;}
	.st20{fill-rule:evenodd;clip-rule:evenodd;fill:none;stroke:#000000;stroke-width:2;stroke-miterlimit:10;}
	.st21{fill-rule:evenodd;clip-rule:evenodd;fill:none;stroke:#000000;stroke-miterlimit:10;}
	.st22{fill:#D3D3D3;}
	.st23{fill-rule:evenodd;clip-rule:evenodd;fill:#FFFFFF;stroke:#000000;stroke-width:2;stroke-miterlimit:10;}
	.st24{fill:url(#SVGID_10_);}
	.st25{fill:url(#SVGID_11_);}
	.st26{fill:url(#SVGID_12_);}
	.st27{fill:#0E0609;}
	.st28{fill-rule:evenodd;clip-rule:evenodd;fill:#D3D3D3;}
]]>
</style>
<g>
	<rect x="5.334" y="45.395" width="3.332" height="14.333"/>
	<rect x="55.334" y="45.395" width="3.332" height="14.333"/>
	<rect x="5.334" y="55.728" width="53" height="4"/>
	<rect x="31.744" y="28.062" width="1.846" height="18"/>
	<polygon points="22.666,37.062 32.881,49.062 41.5,36.728 32.562,43.228 	"/>
</g>
<g>
	<path class="st1" d="M8.703,3.487v21.648H6.016V3.487H8.703z"/>
</g>
<g>
	<path d="M12.681,16.43c0-1.153-0.022-2.098-0.092-3.021h1.799l0.115,1.845h0.046c0.553-1.061,1.845-2.098,3.688-2.098
		c1.545,0,3.943,0.922,3.943,4.75v6.663h-2.029v-6.433c0-1.798-0.669-3.297-2.582-3.297c-1.338,0-2.375,0.945-2.721,2.075
		c-0.093,0.254-0.139,0.6-0.139,0.945v6.709h-2.029V16.43z"/>
	<path d="M27.736,10.274c0.023,0.692-0.484,1.245-1.291,1.245c-0.715,0-1.222-0.553-1.222-1.245c0-0.714,0.53-1.268,1.268-1.268
		C27.252,9.006,27.736,9.56,27.736,10.274z M25.477,24.569V13.41h2.029v11.159H25.477z"/>
	<path d="M33.316,10.205v3.205h2.905v1.545h-2.905v6.018c0,1.383,0.392,2.167,1.521,2.167c0.53,0,0.923-0.069,1.176-0.138
		l0.093,1.522c-0.393,0.161-1.015,0.276-1.799,0.276c-0.945,0-1.706-0.3-2.19-0.853c-0.576-0.6-0.783-1.591-0.783-2.905v-6.087
		h-1.729V13.41h1.729v-2.674L33.316,10.205z"/>
	<path d="M40.764,10.274c0.023,0.692-0.484,1.245-1.291,1.245c-0.715,0-1.222-0.553-1.222-1.245c0-0.714,0.53-1.268,1.268-1.268
		C40.279,9.006,40.764,9.56,40.764,10.274z M38.504,24.569V13.41h2.029v11.159H38.504z"/>
	<path d="M50.078,24.569l-0.161-1.406h-0.069c-0.623,0.876-1.821,1.66-3.412,1.66c-2.26,0-3.413-1.591-3.413-3.205
		c0-2.698,2.398-4.173,6.71-4.15v-0.231c0-0.922-0.254-2.582-2.536-2.582c-1.038,0-2.121,0.323-2.905,0.83l-0.461-1.337
		c0.922-0.6,2.259-0.991,3.666-0.991c3.412,0,4.242,2.329,4.242,4.565v4.173c0,0.968,0.046,1.914,0.185,2.674H50.078z
		 M49.778,18.874c-2.214-0.046-4.727,0.346-4.727,2.513c0,1.314,0.876,1.937,1.914,1.937c1.452,0,2.374-0.922,2.697-1.868
		c0.069-0.207,0.115-0.438,0.115-0.646V18.874z"/>
	<path d="M55.012,8.199h2.029v16.37h-2.029V8.199z"/>
</g>
</svg>
