<?xml version="1.0" encoding="utf-8"?>
<!-- Generator: Adobe Illustrator 16.0.0, SVG Export Plug-In . SVG Version: 6.00 Build 0)  -->
<!DOCTYPE svg PUBLIC "-//W3C//DTD SVG 1.1//EN" "http://www.w3.org/Graphics/SVG/1.1/DTD/svg11.dtd">
<svg version="1.1" id="Layer_1" xmlns="http://www.w3.org/2000/svg" xmlns:xlink="http://www.w3.org/1999/xlink" x="0px" y="0px"
	 width="40px" height="40px" viewBox="0 0 40 40" style="enable-background:new 0 0 40 40;" xml:space="preserve">
<style type="text/css">
<![CDATA[
	.st0{fill:#119E49;}
	.st1{fill:#E71A48;}
	.st2{fill-rule:evenodd;clip-rule:evenodd;fill:#7F7F7F;}
	.st3{fill:url(#SVGID_1_);}
	.st4{fill:url(#SVGID_2_);}
	.st5{fill:url(#SVGID_3_);}
	.st6{fill:url(#SVGID_4_);}
	.st7{fill:url(#SVGID_5_);}
	.st8{fill:url(#SVGID_6_);}
	.st9{fill:url(#SVGID_7_);}
	.st10{fill:url(#SVGID_8_);}
	.st11{fill:url(#SVGID_9_);}
	.st12{fill-rule:evenodd;clip-rule:evenodd;}
	.st13{fill-rule:evenodd;clip-rule:evenodd;fill:none;stroke:#000000;stroke-width:3;stroke-miterlimit:10;}
	.st14{fill:#FFFFFF;}
	.st15{fill:none;}
	.st16{opacity:0.5;fill:#ABABAB;stroke:#787677;stroke-width:3;stroke-miterlimit:10;}
	.st17{fill:none;stroke:#000000;stroke-width:2;stroke-miterlimit:10;}
	.st18{fill-rule:evenodd;clip-rule:evenodd;fill:#FFFFFF;}
	.st19{display:none;fill-rule:evenodd;clip-rule:evenodd;fill:none;stroke:#000000;stroke-width:3;stroke-miterlimit:10;}
	.st20{fill-rule:evenodd;clip-rule:evenodd;fill:none;stroke:#000000;stroke-width:2;stroke-miterlimit:10;}
	.st21{fill-rule:evenodd;clip-rule:evenodd;fill:none;stroke:#000000;stroke-miterlimit:10;}
	.st22{fill:#D3D3D3;}
	.st23{fill-rule:evenodd;clip-rule:evenodd;fill:#FFFFFF;stroke:#000000;stroke-width:2;stroke-miterlimit:10;}
	.st24{fill:url(#SVGID_10_);}
	.st25{fill:url(#SVGID_11_);}
	.st26{fill:url(#SVGID_12_);}
	.st27{fill:#0E0609;}
	.st28{fill-rule:evenodd;clip-rule:evenodd;fill:#D3D3D3;}
]]>
</style>
<linearGradient id="SVGID_1_" gradientUnits="userSpaceOnUse" x1="-90" y1="144" x2="-50" y2="144" gradientTransform="matrix(4.489659e-11 -1 1 4.489659e-11 -124 -50)">
	<stop  offset="0" style="stop-color:#FFFFFF"/>
	<stop  offset="1" style="stop-color:#6D6E71"/>
	<stop  offset="1" style="stop-color:#000000"/>
</linearGradient>
<rect class="st3" width="40" height="40"/>
<g>
	<line class="st27" x1="6.079" y1="33.921" x2="33.921" y2="6.079"/>
	<path d="M6.079,33.921c0,0,0.264-0.606,0.784-1.608c0.26-0.501,0.574-1.111,0.964-1.782c0.191-0.339,0.396-0.699,0.609-1.08
		c0.104-0.193,0.264-0.339,0.44-0.474c0.171-0.141,0.329-0.303,0.492-0.467c2.609-2.61,6.09-6.09,9.57-9.57
		c3.48-3.48,6.96-6.96,9.57-9.571c0.162-0.164,0.327-0.318,0.47-0.488c0.132-0.181,0.286-0.331,0.485-0.43
		c0.38-0.214,0.74-0.418,1.079-0.609c0.672-0.389,1.281-0.704,1.779-0.967c0.999-0.524,1.598-0.795,1.598-0.795
		s-0.271,0.599-0.795,1.598c-0.263,0.499-0.579,1.107-0.967,1.779c-0.191,0.339-0.396,0.7-0.61,1.08
		c-0.098,0.199-0.248,0.354-0.429,0.485c-0.17,0.143-0.324,0.308-0.489,0.47c-2.609,2.61-6.09,6.09-9.57,9.57
		c-3.48,3.48-6.96,6.96-9.57,9.571c-0.164,0.163-0.325,0.32-0.467,0.491c-0.136,0.177-0.281,0.337-0.475,0.44
		c-0.38,0.215-0.74,0.418-1.079,0.61c-0.671,0.389-1.28,0.704-1.782,0.964C6.686,33.657,6.079,33.921,6.079,33.921z"/>
</g>
</svg>
