<?xml version="1.0" encoding="utf-8"?>
<!-- Generator: Adobe Illustrator 16.0.0, SVG Export Plug-In . SVG Version: 6.00 Build 0)  -->
<!DOCTYPE svg PUBLIC "-//W3C//DTD SVG 1.1//EN" "http://www.w3.org/Graphics/SVG/1.1/DTD/svg11.dtd">
<svg version="1.1" id="Layer_1" xmlns="http://www.w3.org/2000/svg" xmlns:xlink="http://www.w3.org/1999/xlink" x="0px" y="0px"
	 width="64px" height="64px" viewBox="0 0 64 64" style="enable-background:new 0 0 64 64;" xml:space="preserve">
<style type="text/css">
<![CDATA[
	.st0{fill:#119E49;}
	.st1{fill:#E71A48;}
	.st2{fill-rule:evenodd;clip-rule:evenodd;fill:#7F7F7F;}
	.st3{fill:url(#SVGID_1_);}
	.st4{fill:url(#SVGID_2_);}
	.st5{fill:url(#SVGID_3_);}
	.st6{fill:url(#SVGID_4_);}
	.st7{fill:url(#SVGID_5_);}
	.st8{fill:url(#SVGID_6_);}
	.st9{fill:url(#SVGID_7_);}
	.st10{fill:url(#SVGID_8_);}
	.st11{fill:url(#SVGID_9_);}
	.st12{fill-rule:evenodd;clip-rule:evenodd;}
	.st13{fill-rule:evenodd;clip-rule:evenodd;fill:none;stroke:#000000;stroke-width:3;stroke-miterlimit:10;}
	.st14{fill:#FFFFFF;}
	.st15{fill:none;}
	.st16{opacity:0.5;fill:#ABABAB;stroke:#787677;stroke-width:3;stroke-miterlimit:10;}
	.st17{fill:none;stroke:#000000;stroke-width:2;stroke-miterlimit:10;}
	.st18{fill-rule:evenodd;clip-rule:evenodd;fill:#FFFFFF;}
	.st19{display:none;fill-rule:evenodd;clip-rule:evenodd;fill:none;stroke:#000000;stroke-width:3;stroke-miterlimit:10;}
	.st20{fill-rule:evenodd;clip-rule:evenodd;fill:none;stroke:#000000;stroke-width:2;stroke-miterlimit:10;}
	.st21{fill-rule:evenodd;clip-rule:evenodd;fill:none;stroke:#000000;stroke-miterlimit:10;}
	.st22{fill:#D3D3D3;}
	.st23{fill-rule:evenodd;clip-rule:evenodd;fill:#FFFFFF;stroke:#000000;stroke-width:2;stroke-miterlimit:10;}
	.st24{fill:url(#SVGID_10_);}
	.st25{fill:url(#SVGID_11_);}
	.st26{fill:url(#SVGID_12_);}
	.st27{fill:#0E0609;}
	.st28{fill-rule:evenodd;clip-rule:evenodd;fill:#D3D3D3;}
]]>
</style>
<path class="st12" d="M41,50.667c1.888,2.393,3.941,2.403,5.232,4.04c-1.77,1.136-3.456,2.997-5.327,3.254
	c-3.745,0.515-7.591,0.154-12.185,0.154c0.528-2.459,0.689-5.39,1.249-5.482c6.69-1.122,5.781-7.236,6.682-11.92
	c1.81-9.409,3.289-18.894,4.905-28.352c-6.585-2.881-9.137-0.121-10.026,6.459c-0.308,2.28-2.23,4.3-3.415,6.439
	c-0.808-0.427-1.615-0.854-2.422-1.282c1.1-6.296,2.199-12.591,3.362-19.245c11.337,0,22.314,0,33.283,0
	c0.588,11.859-1.864,19.031-7.179,19.59c0.244-2.088,0.51-4.038,0.689-5.997c0.184-2.024,0.283-4.059,0.429-6.236
	c-5.217-1.591-8.353-1.249-9.197,5.687C45.785,28.402,42.774,40.515,41,50.667z"/>
<path class="st12" d="M25.32,57.171c-6.891,0-13.782,0-20.672,0c-0.026-0.862-0.051-1.725-0.077-2.588c6.852,0,13.704,0,20.556,0
	C25.191,55.446,25.255,56.309,25.32,57.171z"/>
<path class="st12" d="M5.375,37.487c8.994,0,17.987,0,26.98,0c0.013,0.738,0.025,1.474,0.039,2.212c-8.989,0-17.979,0-26.969,0
	C5.408,38.961,5.391,38.226,5.375,37.487z"/>
<path class="st12" d="M25.167,8.65c-6.154,0-12.308,0-18.461,0C6.644,7.722,6.581,6.792,6.517,5.863
	c6.137-0.441,12.274-0.882,18.412-1.324C25.008,5.909,25.087,7.28,25.167,8.65z"/>
</svg>
