<?xml version="1.0" encoding="utf-8"?>
<!-- Generator: Adobe Illustrator 16.0.0, SVG Export Plug-In . SVG Version: 6.00 Build 0)  -->
<!DOCTYPE svg PUBLIC "-//W3C//DTD SVG 1.1//EN" "http://www.w3.org/Graphics/SVG/1.1/DTD/svg11.dtd">
<svg version="1.1" id="Layer_1" xmlns="http://www.w3.org/2000/svg" xmlns:xlink="http://www.w3.org/1999/xlink" x="0px" y="0px"
	 width="40px" height="40px" viewBox="0 0 40 40" style="enable-background:new 0 0 40 40;" xml:space="preserve">
<style type="text/css">
<![CDATA[
	.st0{fill:#119E49;}
	.st1{fill:#E71A48;}
	.st2{fill-rule:evenodd;clip-rule:evenodd;fill:#7F7F7F;}
	.st3{fill:url(#SVGID_1_);}
	.st4{fill:url(#SVGID_2_);}
	.st5{fill:url(#SVGID_3_);}
	.st6{fill:url(#SVGID_4_);}
	.st7{fill:url(#SVGID_5_);}
	.st8{fill:url(#SVGID_6_);}
	.st9{fill:url(#SVGID_7_);}
	.st10{fill:url(#SVGID_8_);}
	.st11{fill:url(#SVGID_9_);}
	.st12{fill-rule:evenodd;clip-rule:evenodd;}
	.st13{fill-rule:evenodd;clip-rule:evenodd;fill:none;stroke:#000000;stroke-width:3;stroke-miterlimit:10;}
	.st14{fill:#FFFFFF;}
	.st15{fill:none;}
	.st16{opacity:0.5;fill:#ABABAB;stroke:#787677;stroke-width:3;stroke-miterlimit:10;}
	.st17{fill:none;stroke:#000000;stroke-width:2;stroke-miterlimit:10;}
	.st18{fill-rule:evenodd;clip-rule:evenodd;fill:#FFFFFF;}
	.st19{display:none;fill-rule:evenodd;clip-rule:evenodd;fill:none;stroke:#000000;stroke-width:3;stroke-miterlimit:10;}
	.st20{fill-rule:evenodd;clip-rule:evenodd;fill:none;stroke:#000000;stroke-width:2;stroke-miterlimit:10;}
	.st21{fill-rule:evenodd;clip-rule:evenodd;fill:none;stroke:#000000;stroke-miterlimit:10;}
	.st22{fill:#D3D3D3;}
	.st23{fill-rule:evenodd;clip-rule:evenodd;fill:#FFFFFF;stroke:#000000;stroke-width:2;stroke-miterlimit:10;}
	.st24{fill:url(#SVGID_10_);}
	.st25{fill:url(#SVGID_11_);}
	.st26{fill:url(#SVGID_12_);}
	.st27{fill:#0E0609;}
	.st28{fill-rule:evenodd;clip-rule:evenodd;fill:#D3D3D3;}
]]>
</style>
<linearGradient id="SVGID_1_" gradientUnits="userSpaceOnUse" x1="-450" y1="504" x2="-410" y2="504" gradientTransform="matrix(4.489659e-11 -1 1 4.489659e-11 -484 -410)">
	<stop  offset="0" style="stop-color:#FFFFFF"/>
	<stop  offset="1" style="stop-color:#6D6E71"/>
	<stop  offset="1" style="stop-color:#000000"/>
</linearGradient>
<rect class="st3" width="40" height="40"/>
<g>
	<line class="st27" x1="6.079" y1="33.921" x2="33.921" y2="6.079"/>
	<path d="M6.079,33.921c0,0-0.022-0.24-0.033-0.659c-0.001-0.409-0.044-1.049-0.007-1.773c0.02-0.742,0.041-1.645,0.128-2.618
		c0.05-0.481,0.102-0.993,0.157-1.532c0.013-0.285,0.188-0.415,0.407-0.507c0.214-0.098,0.346-0.286,0.516-0.442
		c2.61-2.61,6.091-6.09,9.571-9.571c3.479-3.48,6.96-6.96,9.57-9.57c0.153-0.173,0.346-0.3,0.451-0.507
		c0.081-0.231,0.24-0.376,0.54-0.374c0.546-0.049,1.063-0.096,1.55-0.14c0.955-0.105,1.857-0.127,2.592-0.155
		c0.72-0.041,1.35-0.009,1.752-0.014c0.422,0.014,0.647,0.021,0.647,0.021s0.008,0.225,0.021,0.647
		c-0.005,0.403,0.027,1.033-0.015,1.753c-0.026,0.734-0.049,1.636-0.154,2.591c-0.044,0.486-0.091,1.004-0.14,1.549
		c0.003,0.3-0.143,0.459-0.374,0.541c-0.208,0.104-0.334,0.297-0.507,0.451c-2.61,2.61-6.091,6.09-9.571,9.571
		c-3.479,3.48-6.96,6.96-9.57,9.57c-0.156,0.17-0.344,0.302-0.442,0.516c-0.092,0.22-0.222,0.395-0.507,0.407
		c-0.539,0.056-1.051,0.108-1.532,0.157c-0.974,0.087-1.876,0.108-2.618,0.128c-0.724,0.037-1.365-0.005-1.773-0.006
		C6.319,33.943,6.079,33.921,6.079,33.921z"/>
</g>
</svg>
